<svg width="1283" height="317" viewBox="0 0 1283 317" fill="none" xmlns="http://www.w3.org/2000/svg">
<g clip-path="url(#clip0_1504_46039)">
<path fill-rule="evenodd" clip-rule="evenodd" d="M265.857 168.308L265.857 170.427C279.48 170.298 293.108 169.934 306.687 169.57C311.682 169.437 316.671 169.303 321.651 169.182C368.576 168.043 415.705 168.125 462.804 168.523C478.964 168.66 495.13 168.834 511.296 169.008C541.533 169.333 571.772 169.659 601.987 169.74C607.55 169.756 613.152 169.781 618.78 169.806C658.691 169.984 699.952 170.169 738.568 166.986C739.742 166.892 739.53 166.077 738.313 166.071C715.063 165.985 691.843 166.386 668.611 166.787C645.694 167.182 622.765 167.578 599.784 167.507C570.288 167.411 540.777 167.096 511.266 166.781C495.12 166.608 478.973 166.436 462.829 166.299C417.246 165.915 371.61 165.815 326.157 166.857C318.58 167.03 311.01 167.234 303.444 167.438C290.909 167.776 278.385 168.114 265.857 168.308Z" fill="black"/>
<path d="M189.527 166.536C188.816 166.481 188.644 166.991 189.355 167.076C214.61 170.079 240.227 170.67 265.857 170.427L265.857 168.308C240.474 168.702 215.074 168.508 189.527 166.536Z" fill="black"/>
<path d="M746.537 168.068C751.336 168.128 756.112 168.21 760.911 168.27C761.187 168.276 761.196 167.861 760.92 167.855C756.123 167.707 751.348 167.582 746.551 167.434C746.137 167.447 746.124 168.059 746.537 168.068Z" fill="black"/>
<path d="M774.094 168.326C776.479 168.487 778.887 168.649 781.273 168.81C781.685 168.855 781.709 167.762 781.295 167.79C778.905 167.847 776.492 167.905 774.102 167.962C773.964 167.996 773.956 168.323 774.094 168.326Z" fill="black"/>
<path fill-rule="evenodd" clip-rule="evenodd" d="M896.434 174.009C869.146 173.33 841.86 172.323 814.556 170.807C813.891 170.773 813.878 170.318 814.566 170.343C841.723 171.301 868.916 171.88 896.116 172.225L896.434 174.009Z" fill="black"/>
<path fill-rule="evenodd" clip-rule="evenodd" d="M1032.72 175.515L1030.22 172.656C985.59 172.724 940.844 172.793 896.116 172.225L896.434 174.009C941.825 175.139 987.222 175.363 1032.72 175.515Z" fill="black"/>
</g>
<path d="M615.55 191.818C621.23 191.876 626.458 193.231 631.384 196.09C635.127 198.267 638.198 201.362 641.846 203.659C645.814 206.156 651.167 208.042 655.709 205.868C658.478 204.542 661.2 200.739 658.773 197.869C655.903 194.487 649.479 196.58 646.514 198.474C646.264 198.635 646.154 198.967 646.309 199.237C649.522 204.845 656.02 206.252 661.863 207.742C671.804 210.283 681.801 212.58 691.728 215.211C692.076 215.304 692.224 214.754 691.874 214.67C682.896 212.357 673.988 209.866 665.05 207.367C661.024 206.242 656.666 205.504 652.876 203.697C651.517 203.052 649.395 202.046 648.666 200.752C646.826 197.471 652.285 196.848 654.415 197.401C657.286 197.2 658.194 199.288 657.157 203.679C655.522 205.062 653.656 205.761 651.553 205.764C649.371 205.829 647.059 205.186 645.093 204.295C641.522 202.671 638.639 199.917 635.51 197.614C629.517 193.216 622.993 191.253 615.558 191.634C615.435 191.631 615.427 191.816 615.55 191.818Z" fill="black"/>
<path d="M648.763 131.191C649.229 139.74 649.637 140.834 645.291 148.359C639.423 155.52 624.096 164.234 614.465 164.234C596.788 164.234 582.458 148.986 582.458 130.177C582.458 111.369 596.788 96.1212 614.465 96.1212C632.143 96.1212 647.895 115.278 648.763 131.191Z" fill="#e2dddd"/>
<path d="M614.274 165.663C605.434 165.653 596.334 163.693 589.684 157.483C582.604 150.873 579.724 140.683 580.454 131.223C581.864 112.853 596.944 96.6133 615.994 97.4033C626.124 97.8233 634.624 103.143 640.294 111.413C646.144 119.943 650.394 131.163 647.574 141.483C642.724 159.213 624.544 166.353 607.474 165.833C606.994 165.823 606.904 166.533 607.364 166.663C619.784 170.213 638.824 161.903 645.334 150.823C653.774 136.463 649.044 118.763 638.674 106.663C628.484 94.7633 610.914 92.2933 597.434 100.033C583.934 107.793 576.454 124.013 578.654 139.313C581.334 157.873 596.444 167.403 614.264 167.253C615.304 167.243 615.304 165.663 614.274 165.663Z" fill="black"/>
<path d="M580.684 143.283C575.654 117.443 616.454 96.6734 635.494 113.693C635.804 113.973 636.264 113.523 635.954 113.233C625.314 103.103 609.884 105.953 598.014 112.323C586.364 118.573 577.184 129.663 579.964 143.483C580.064 143.953 580.784 143.753 580.684 143.283Z" fill="black"/>
<path d="M580.934 142.173C583.184 132.913 591.874 125.803 600.194 121.903C608.874 117.823 618.684 116.673 628.094 118.433C628.154 118.443 628.174 118.353 628.114 118.343C610.684 113.933 584.804 122.343 580.754 142.133C580.724 142.243 580.904 142.293 580.934 142.173Z" fill="black"/>
<path d="M584.604 152.603C588.004 145.593 592.934 139.813 599.114 135.073C607.314 128.783 615.354 128.313 625.284 129.103C625.594 129.123 625.674 128.603 625.354 128.553C616.064 126.953 607.784 127.813 599.964 133.363C593.004 138.303 587.674 144.583 584.204 152.363C584.074 152.643 584.464 152.883 584.604 152.603Z" fill="black"/>
<path d="M593.974 141.633C608.114 160.813 636.554 152.423 649.414 136.203C649.634 135.923 649.244 135.523 649.014 135.803C636.444 151.763 608.664 159.833 594.534 141.293C594.294 140.973 593.724 141.293 593.974 141.633Z" fill="black"/>
<path d="M590.654 147.453C597.484 154.673 606.264 159.263 616.354 159.373C626.434 159.493 636.694 154.893 644.924 149.383C645.024 149.313 644.934 149.153 644.834 149.223C628.404 160.233 605.244 163.623 590.724 147.383C590.684 147.333 590.604 147.403 590.654 147.453Z" fill="black"/>
<path d="M605.404 132.633C610.224 140.733 619.574 144.263 628.744 142.963C636.954 141.803 648.524 136.483 648.464 126.923C648.464 126.663 648.074 126.603 648.004 126.863C645.514 135.613 636.324 140.473 627.644 141.573C619.144 142.653 610.924 139.183 605.614 132.463C605.524 132.333 605.324 132.493 605.404 132.633Z" fill="black"/>
<path d="M640.924 111.813C635.044 114.823 629.644 118.033 626.774 124.253C624.384 129.423 624.224 135.213 626.314 140.503C626.374 140.663 626.634 140.603 626.584 140.433C624.854 134.663 625.044 128.653 627.844 123.223C630.654 117.763 635.754 114.723 640.974 111.893C641.024 111.863 640.974 111.783 640.924 111.813Z" fill="black"/>
<path d="M641.904 116.383C634.024 121.573 629.774 130.373 632.544 139.743C632.594 139.913 632.854 139.843 632.814 139.673C630.694 130.583 633.574 121.303 641.954 116.473C642.014 116.433 641.964 116.343 641.904 116.383Z" fill="black"/>
<path d="M644.984 120.633C638.924 121.743 636.754 131.413 639.634 136.163C639.714 136.293 639.944 136.213 639.894 136.053C638.174 131.153 638.804 122.243 645.114 121.083C645.404 121.033 645.284 120.583 644.984 120.633Z" fill="black"/>
<path d="M649.65 161.294C649.023 161.712 644.216 165.578 635.752 169.863L628.437 172.684L607.641 175.506L591.548 171.012L580.957 164.818L573.461 156.39L583.815 148.838L588.936 148.545C611.891 148.824 658.052 149.339 659.055 149.172C660.058 149.005 658.637 151.401 657.801 152.621C655.293 155.372 650.152 160.96 649.65 161.294Z" fill="#334756"/>
<path d="M570.924 149.473C585.754 151.253 601.054 150.843 615.974 150.943C630.284 151.033 645.414 152.203 659.574 149.973C660.544 149.823 660.164 148.513 659.364 148.403C644.914 146.573 629.694 148.063 615.134 147.993C600.464 147.913 585.554 146.913 570.914 147.873C569.884 147.953 569.924 149.353 570.924 149.473Z" fill="black"/>
<path d="M568.864 149.203C570.774 157.753 578.924 165.053 586.134 169.343C594.384 174.263 604.144 176.803 613.744 176.443C632.974 175.733 650.804 166.893 659.764 149.443C660.044 148.893 659.304 148.483 658.954 148.973C648.024 164.023 633.054 172.253 614.444 173.533C605.524 174.143 596.444 172.193 588.564 167.973C584.744 165.923 581.234 163.373 578.144 160.333C574.624 156.873 572.354 152.863 569.454 148.953C569.254 148.653 568.784 148.813 568.864 149.203Z" fill="black"/>
<path d="M616.333 23.5933C611.453 45.0033 604.093 65.8033 596.043 86.1933C592.113 96.1633 588.003 106.053 583.953 115.973C581.873 121.073 579.803 126.183 577.773 131.303C575.693 136.573 572.943 142.103 571.823 147.663C571.753 148.013 572.233 148.253 572.423 147.913C574.783 143.643 576.143 138.733 577.913 134.183C579.913 129.053 581.963 123.933 584.033 118.833C588.283 108.333 592.623 97.8733 596.763 87.3333C604.933 66.5733 612.213 45.5733 616.603 23.6533C616.633 23.4933 616.373 23.4233 616.333 23.5933Z" fill="black"/>
<path d="M616.334 18.9133C635.364 60.8233 644.714 106.283 655.914 150.693C656.004 151.043 656.544 150.893 656.454 150.543C645.794 106.153 636.914 59.9933 616.414 18.8633C616.384 18.8033 616.314 18.8533 616.334 18.9133Z" fill="black"/>
<path opacity="0.14" d="M747.446 194.872C747.446 199.621 729.046 203.47 706.348 203.47C683.65 203.47 665.25 199.621 665.25 194.872C665.25 190.124 683.65 186.275 706.348 186.275C729.046 186.275 747.446 190.124 747.446 194.872Z" fill="black"/>
<path d="M705.931 5.81877L709.874 4.88616L711.038 14.8514L712.126 52.6148V87.0111L713.208 129.051L715.047 155.73L716.253 176.773C717.781 176.672 720.878 176.477 721.046 176.501C721.215 176.526 724.151 177.657 725.599 178.22L728.01 181.084L728.221 183.586L731.598 184.309L737.717 187.927L737.959 191.635L732.984 195.403L710.405 197.453L687.946 197.845L677.635 195.765C676.681 195.172 674.772 193.938 674.772 193.745C674.772 193.504 674.44 190.791 674.44 190.55C674.44 190.357 675.727 188.359 676.37 187.384L681.826 185.455C681.947 184.38 682.188 182.187 682.188 182.018C682.188 181.849 683.153 179.496 683.635 178.34L691.352 177.315L695.14 176.417L693.538 139.833L694.517 69.8694L696.857 17.0042L698.213 4.11755L699.315 3.73596L703.431 5.56439L705.931 5.81877Z" fill="#334756"/>
<path d="M705.223 6.33328C716.243 2.78328 725.893 1.36328 737.153 4.92328C747.753 8.27328 758.153 12.3533 768.613 16.1233C781.883 20.9033 804.153 29.7633 814.213 14.5333C814.663 13.8433 813.783 13.0633 813.123 13.4433C804.603 18.2633 795.703 19.4133 786.163 17.3033C776.703 15.2033 767.463 11.9033 758.213 9.05328C748.853 6.17328 739.313 2.32328 729.553 1.09328C720.913 0.00328064 713.013 2.58328 705.003 5.52328C704.503 5.70328 704.703 6.50328 705.223 6.33328Z" fill="black"/>
<path d="M705.224 5.34324C697.414 2.45324 689.814 0.0332361 681.384 1.09324C671.624 2.32324 662.084 6.18324 652.724 9.06324C643.474 11.9132 634.234 15.2132 624.774 17.3032C615.224 19.4132 606.354 18.2632 597.814 13.4432C597.144 13.0632 596.274 13.8432 596.724 14.5332C606.754 29.7832 629.064 20.8832 642.314 16.1132C652.484 12.4532 662.604 8.54324 672.884 5.19324C678.064 3.51324 683.394 2.21324 688.884 2.45324C694.434 2.69324 699.754 4.46324 704.994 6.16324C705.524 6.33324 705.724 5.53324 705.224 5.34324Z" fill="black"/>
<path d="M746.553 124.423C761.383 126.203 776.683 125.793 791.603 125.893C805.913 125.983 821.043 127.153 835.203 124.923C836.173 124.773 835.793 123.463 834.993 123.353C820.543 121.523 805.323 123.013 790.763 122.943C776.093 122.863 761.183 121.863 746.543 122.823C745.513 122.903 745.553 124.303 746.553 124.423Z" fill="black"/>
<path d="M745.591 123.312C746.028 122.972 751.53 123.17 754.226 123.312L809.142 124.529C816.825 124.508 832.252 124.48 832.495 124.529C832.738 124.577 833.894 124.873 834.441 125.015L828.299 133.103L817.717 141.253L803.122 147.699L783.357 149.827L767.971 145.814L754.226 137.36L745.105 125.562C745.084 124.954 745.153 123.653 745.591 123.312Z" fill="#334756"/>
<path opacity="0.07" d="M831.708 190.069C831.708 193.95 813.308 197.096 790.61 197.096C767.912 197.096 749.512 193.95 749.512 190.069C749.512 186.188 767.912 183.042 790.61 183.042C813.308 183.042 831.708 186.188 831.708 190.069Z" fill="black"/>
<path opacity="0.14" d="M655.076 190.069C655.076 193.95 636.676 197.096 613.978 197.096C591.28 197.096 572.88 193.95 572.88 190.069C572.88 186.188 591.28 183.042 613.978 183.042C636.676 183.042 655.076 186.188 655.076 190.069Z" fill="black"/>
<path d="M744.504 124.143C746.414 132.693 754.564 139.993 761.774 144.283C770.024 149.203 779.784 151.743 789.384 151.383C808.614 150.673 826.443 141.833 835.403 124.383C835.683 123.833 834.943 123.423 834.593 123.913C823.663 138.963 808.694 147.193 790.084 148.473C781.164 149.083 772.083 147.133 764.204 142.913C760.384 140.863 756.874 138.313 753.784 135.273C750.264 131.813 747.994 127.803 745.094 123.893C744.884 123.603 744.414 123.763 744.504 124.143Z" fill="black"/>
<path d="M795.043 20.6332C785.843 35.5032 777.703 50.8932 770.293 66.7232C766.433 74.9632 762.773 83.2932 759.263 91.6832C755.133 101.553 749.673 112.143 747.453 122.623C747.383 122.973 747.863 123.223 748.053 122.873C752.653 114.343 755.293 104.363 758.983 95.3632C762.963 85.6432 767.153 76.0232 771.593 66.5132C778.853 50.9632 786.723 35.6432 795.293 20.7732C795.383 20.6232 795.143 20.4832 795.043 20.6332Z" fill="black"/>
<path d="M795.123 20.7333C802.543 37.1333 810.193 53.5133 816.193 70.5033C822.573 88.5533 826.498 105.4 831.158 123.94C831.248 124.29 831.788 124.14 831.698 123.79C827.188 104.73 823.263 87.5033 816.623 69.0333C810.643 52.4033 803.193 36.4333 795.203 20.6833C795.183 20.6333 795.103 20.6733 795.123 20.7333Z" fill="black"/>
<path d="M698.923 4.0133C698.963 3.8633 699.013 3.7133 699.053 3.5633C699.063 3.5133 699.043 3.4633 699.003 3.4333C698.843 3.3233 698.683 3.2133 698.523 3.1033C698.453 3.0533 698.333 3.0533 698.263 3.1033C697.323 3.7733 697.963 3.4533 697.433 4.4933C696.133 7.0333 696.703 11.9633 696.543 14.8233C696.093 22.6433 695.663 30.4533 695.263 38.2733C694.473 53.7533 693.803 69.2433 693.343 84.7333C692.883 100.223 692.643 115.713 692.703 131.203C692.733 139.113 692.853 147.023 693.053 154.923C693.243 162.163 693.013 169.673 694.083 176.843C694.203 177.663 695.393 177.383 695.443 176.663C695.493 176.053 695.533 175.433 695.583 174.823C695.623 174.273 694.823 174.213 694.663 174.703C694.473 175.293 694.283 175.893 694.083 176.483C694.533 176.543 694.993 176.603 695.443 176.663C695.813 169.473 694.993 162.123 694.793 154.923C694.593 147.673 694.473 140.423 694.413 133.173C694.303 118.343 694.473 103.503 694.853 88.6833C695.223 74.1833 695.783 59.6833 696.463 45.1833C696.803 37.9333 697.173 30.6933 697.563 23.4533C697.753 20.0033 697.963 16.5533 698.133 13.0933C698.223 11.3633 698.263 9.6533 698.283 7.9333C698.303 6.6933 698.813 4.8533 698.813 4.0033C698.833 4.0633 698.913 4.0733 698.923 4.0133Z" fill="black"/>
<path d="M709.334 4.24328C712.174 31.4633 710.884 58.7733 711.224 86.1033C711.564 114.343 712.724 142.573 714.504 170.763C715.144 170.673 715.794 170.593 716.434 170.503C716.304 169.783 716.074 169.083 715.764 168.423C715.594 168.003 714.874 167.863 714.774 168.423C714.584 169.463 714.554 169.693 714.504 170.763C714.444 172.033 716.554 172.023 716.474 170.763C714.684 142.243 713.584 113.683 713.084 85.1133C712.844 71.2733 712.804 57.4333 712.834 43.5833C712.864 30.4733 713.124 16.9733 710.074 4.14328C709.984 3.74328 709.294 3.81328 709.334 4.24328Z" fill="black"/>
<path d="M695.224 176.833C695.284 176.833 695.284 176.733 695.224 176.733C695.164 176.733 695.164 176.833 695.224 176.833Z" fill="black"/>
<path d="M694.494 176.343C689.734 175.743 678.774 176.883 681.204 184.163C683.704 191.683 697.184 189.383 702.904 189.363C709.184 189.343 715.474 189.193 721.654 188.003C724.084 187.533 728.254 186.673 728.804 183.633C729.834 177.853 720.594 173.763 716.324 176.313C715.974 176.523 716.114 177.103 716.534 177.103C719.074 177.053 721.444 176.723 723.804 177.993C725.804 179.073 728.514 181.823 726.904 184.513C726.264 185.583 724.224 186.053 723.154 186.353C716.404 188.253 708.894 187.713 701.964 187.513C697.394 187.383 690.984 188.443 686.604 186.803C684.114 185.863 680.824 183.343 683.894 179.953C684.644 179.123 686.174 178.843 687.174 178.513C689.504 177.763 692.064 177.213 694.494 177.003C694.924 176.963 694.904 176.393 694.494 176.343Z" fill="black"/>
<path d="M716.553 177.153C716.693 176.223 716.583 175.163 716.293 174.283C716.233 174.093 716.053 173.923 715.843 173.943C715.703 173.953 715.613 173.993 715.513 174.083C715.403 174.183 715.333 174.393 715.393 174.543C715.703 175.313 715.893 176.243 715.823 177.073C715.783 177.473 716.483 177.573 716.553 177.153Z" fill="black"/>
<path d="M683.653 185.343C680.803 185.063 677.783 185.403 675.643 187.533C673.743 189.423 672.673 192.923 674.753 194.973C677.743 197.933 684.173 198.233 688.043 198.633C693.213 199.173 698.433 198.943 703.613 198.733C709.573 198.483 715.533 198.113 721.493 197.693C725.603 197.403 730.853 197.693 734.613 195.803C743.783 191.183 736.193 182.563 728.533 183.063C727.883 183.103 727.663 184.093 728.373 184.263C731.803 185.073 738.793 187.153 736.483 191.683C734.573 195.423 729.393 195.363 725.713 195.683C718.783 196.283 711.843 196.803 704.893 197.173C698.843 197.493 692.743 197.843 686.713 197.133C682.763 196.673 674.593 196.243 675.133 190.603C675.473 187.043 680.843 186.173 683.663 185.803C683.943 185.773 683.953 185.373 683.653 185.343Z" fill="black"/>
<path fill-rule="evenodd" clip-rule="evenodd" d="M611.462 179.008C611.16 180.792 610.892 182.375 610.734 183.652C610.532 185.289 610.792 186.573 611.323 187.583C611.855 188.596 612.677 189.368 613.65 189.946C615.609 191.112 617.715 191.697 619.44 191.648L617.378 191.765C615.538 191.818 615.314 192.1 613.138 190.806C612.043 190.154 611.073 189.258 610.438 188.048C609.801 186.835 609.517 185.342 609.742 183.529C609.909 182.18 610.185 180.55 610.492 178.734C611.187 174.627 612.043 169.568 612.167 164.656C612.347 157.551 610.973 151.14 605.665 148.526L606.198 147.894C612.102 150.801 613.347 157.567 613.167 164.682C613.041 169.665 612.16 174.876 611.462 179.008Z" fill="black"/>
<path opacity="0.14" d="M615.749 266.463C615.749 274.597 577.183 281.191 529.61 281.191C482.037 281.191 443.471 274.597 443.471 266.463C443.471 258.329 482.037 251.735 529.61 251.735C577.183 251.735 615.749 258.329 615.749 266.463Z" fill="black"/>
<path d="M576.568 185.093L576 188.5C576 188.5 576.204 193.622 575.412 196.756C575.005 198.364 574.004 200.764 574.004 200.764L568.263 214.341L561.402 225.715L553.711 236.403L543.168 246.982L532.335 255.215L523.236 259.873L514.606 263.231L499.188 265.759H485.503L471.709 264.025L458.133 259.981L448.745 254.168L439.645 247.416L429.896 236.764L422.422 224.559C422.422 224.559 418.137 218.009 416.247 213.402C414.584 209.348 414.595 206.749 413.07 202.642C412.552 201.247 411.662 199.103 411.662 199.103L407.112 201.197L395.268 209.61L382.306 218.024L374.073 222.537L363.24 226.004L353.888 226.906L345.656 226.004L336.412 222.682L330.129 218.818L323.377 213.005L318.611 207.3L314.314 200.258L310.956 190.834L308.97 181.157L308.212 170.83L309.512 161.298L311.461 152.09L315.253 143.785L322.656 134.614L331.357 126.489L337.929 123.312L343.779 122.409L351.578 123.637L356.128 126.489L356.705 135.769L351.903 150.429L350.675 156.82V163.681L352.409 170.902L357.825 176.933L364.541 180.218L376.709 181.771L390.9 178.63L406.968 172.708L406.643 171.227L406.968 166.931L409.46 156.279L413.757 147.649C416.055 145.41 420.761 140.839 421.194 140.463C421.627 140.088 427.008 137.563 429.643 136.347L427.405 132.7L427.875 129.342L433.507 126.598L432.135 123.384L430.619 116.812L430.871 103.416L433.507 88.4675L438.274 77.3101L446.674 66.2819L446.33 63.393V60.4181L446.674 57.5636L447.998 49.0689L449.305 43.721L450.355 40.2475L451.453 37.7716L452.753 36.6884L457.483 41.3102L469.76 50.2651H471.891L481.929 47.0514C486.538 46.6663 495.801 45.896 495.974 45.896C496.147 45.896 501.439 46.6663 504.062 47.0514L511.898 35.3163L522.766 25.0615V28.3835L525.583 38.1688L530.603 53.6592L533.346 55.1758L536.524 57.7755L542.049 67.4164L545.731 74.5298L552.917 86.0844L560.536 96.7002L565.375 103.2C566.085 105.474 567.491 110.075 567.433 110.277C567.375 110.479 567.265 114.935 567.216 117.137L564.616 124.54L567.035 125.659L577.218 130.967L583.753 139.2L586.317 148.082C586.125 151.548 585.739 158.546 585.739 158.806C585.739 159.131 581.045 173.141 580.901 173.611C580.785 173.986 577.964 181.422 576.568 185.093Z" fill="#acacac"/>
<path opacity="0.71" d="M574.039 188.368L578.804 187.054L579.744 193.246L575.675 196.297L572.936 203.457L565.346 220.671L552.827 239.646L536.434 251.892C534.296 253.574 529.979 256.97 529.822 257.095C529.627 257.251 532.952 258.151 533.265 258.425C533.516 258.644 533.683 259.273 533.735 259.56L532.952 262.259L518.711 267.893C513.247 269.262 502.264 272.001 502.045 272.001H482.601L470.59 270.123L459.792 267.971L455.449 265.937C455.436 265.128 455.418 263.3 455.449 262.455C455.48 261.61 456.375 261.112 456.818 260.968L457.092 259.794L452.749 257.017L441.052 248.527L433.07 240.546L428.258 234.09L420.394 221.414L416.717 214.842L415.321 211.535L412.363 210.96L409.98 208.66V206.442V205.292C410.857 204.936 412.741 204.224 413.267 204.224C413.793 204.224 415.786 205.702 416.717 206.442L428.63 209.317L447.525 211.535L463.544 212.357L481.782 211.535L507.413 208.578L523.926 205.456L539.699 201.759L556.787 197.323L568.535 192.394L574.039 188.368Z" fill="#C9EBFF"/>
<path d="M418.337 215.79C417.357 214.2 416.417 212.52 415.217 211.09C414.987 210.81 414.567 211.17 414.727 211.47C422.927 226.56 430.197 241.11 444.087 251.89C453.767 259.4 463.987 264.89 476.277 265.95C489.647 267.11 503.437 267.51 516.437 263.67C529.737 259.74 542.347 250.8 552.027 241.02C563.847 229.07 571.057 213.52 576.497 197.83C577.137 195.99 574.277 195.25 573.607 197.03C568.297 211.05 562.637 225.13 552.657 236.57C543.297 247.3 530.187 257.06 516.487 261.35C504.117 265.23 491.027 265 478.237 264.08C464.937 263.13 453.317 257.7 443.007 249.27C435.507 243.14 429.147 235.6 424.317 227.21C421.977 223.16 419.987 218.92 417.637 214.88C417.167 214.07 414.577 210.18 415.817 212.7C416.367 213.83 417.497 214.82 418.257 215.83C418.297 215.88 418.377 215.84 418.337 215.79Z" fill="black"/>
<path d="M424.047 214.399C421.417 213.529 418.897 212.369 416.317 211.389C414.927 210.859 412.657 210.439 411.577 209.349C411.117 208.889 410.797 207.899 410.837 207.249C410.957 205.219 412.607 204.749 414.177 205.479C416.167 206.409 417.837 207.589 420.057 207.839C420.567 207.899 420.627 207.199 420.297 206.969C418.607 205.749 416.687 204.669 414.807 203.759C413.997 203.369 413.117 202.939 412.187 203.109C410.027 203.509 408.917 205.999 409.307 207.959C409.687 209.859 410.667 210.619 412.367 211.289C416.147 212.769 420.117 213.439 424.027 214.499C424.087 214.519 424.107 214.419 424.047 214.399Z" fill="black"/>
<path d="M574.467 197.55C578.497 197.83 581.717 193.61 581.487 189.78C581.397 188.24 580.737 186.65 579.237 186C577.497 185.25 575.487 186.15 574.717 187.8C574.557 188.14 574.737 188.72 575.207 188.66C576.037 188.55 577.557 187.71 578.267 188.31C578.897 188.84 578.947 190.35 578.877 191.07C578.587 193.72 576.277 195.21 574.137 196.36C573.547 196.68 573.867 197.51 574.467 197.55Z" fill="black"/>
<path d="M413.347 203.89C417.467 208.02 421.987 208.59 427.567 209.6C434.387 210.83 441.277 211.71 448.187 212.25C463.427 213.45 478.827 212.83 494.007 211.09C508.437 209.43 522.737 206.72 536.847 203.26C550.337 199.95 565.077 196.74 576.417 188.28C577.277 187.64 576.437 186.17 575.567 186.82C564.817 194.84 551.017 197.99 538.237 201.2C524.287 204.7 510.157 207.49 495.877 209.24C482.237 210.91 468.467 211.6 454.727 211.06C447.897 210.79 441.087 210.26 434.307 209.37C427.477 208.47 419.067 208.21 413.547 203.69C413.407 203.58 413.217 203.76 413.347 203.89Z" fill="black"/>
<path d="M414.956 211.78C427.486 216.81 441.786 217.82 455.146 218.5C470.646 219.29 486.096 218.11 501.436 215.85C516.366 213.65 531.176 210.49 545.726 206.48C551.206 204.97 556.636 203.32 562.026 201.49C567.426 199.65 574.736 198.37 578.996 194.34C579.146 194.2 578.956 193.95 578.776 194.05C573.226 197.37 566.016 198.95 559.906 200.96C554.686 202.67 549.406 204.19 544.106 205.6C530.216 209.29 516.116 212.21 501.896 214.26C486.456 216.49 470.766 217.74 455.166 217.13C441.846 216.61 427.806 215.59 415.046 211.52C414.856 211.46 414.796 211.71 414.956 211.78Z" fill="black"/>
<path d="M407.887 170.86C408.737 156.71 415.737 139.71 431.487 137.38C432.737 137.2 432.207 135.3 430.967 135.48C415.127 137.82 405.517 155.95 406.577 170.86C406.637 171.7 407.837 171.71 407.887 170.86Z" fill="black"/>
<path d="M413.876 203.62C414.226 202.76 413.806 201.91 413.556 201.07C413.316 200.26 413.086 199.45 412.866 198.63C412.526 197.41 410.626 197.93 410.966 199.15C411.196 199.99 411.436 200.83 411.686 201.67C411.956 202.58 412.086 203.44 412.916 204.01C413.296 204.28 413.736 203.98 413.876 203.62Z" fill="black"/>
<path d="M430.227 136.52C428.917 135.07 427.797 132.94 428.157 130.92C428.537 128.77 431.737 128.14 433.537 127.4C434.467 127.01 434.057 125.47 433.117 125.86C431.017 126.73 427.137 127.36 426.877 130.12C426.637 132.64 428.217 135.15 430.097 136.65C430.187 136.73 430.307 136.61 430.227 136.52Z" fill="black"/>
<path d="M433.697 126.6C428.997 116.54 431.707 102.96 433.417 92.5095C435.297 80.9995 441.567 72.2295 450.167 64.5995C464.917 51.5195 484.337 44.4295 503.917 47.4695C505.037 47.6395 505.517 45.9295 504.387 45.7495C494.187 44.1895 485.047 44.7895 475.197 48.1595C465.077 51.6295 455.727 57.2095 447.907 64.5195C439.007 72.8495 433.527 81.9095 431.807 94.0395C430.367 104.23 427.887 117.34 433.607 126.65C433.647 126.71 433.727 126.66 433.697 126.6Z" fill="black"/>
<path d="M529.657 53.4095C537.107 56.8195 539.267 63.1595 542.667 70.0095C545.727 76.1695 549.247 82.0995 553.177 87.7395C557.037 93.2795 561.907 98.3195 565.007 104.35C568.387 110.92 566.897 117.54 563.977 123.89C563.677 124.55 564.437 125.22 565.007 124.69C568.657 121.24 569.107 114.61 568.497 109.92C567.457 102.04 561.117 95.9795 556.567 89.8995C551.197 82.7095 546.517 75.0095 542.627 66.9295C539.407 60.2595 537.147 55.4895 529.877 52.8995C529.577 52.7895 529.367 53.2795 529.657 53.4095Z" fill="black"/>
<path d="M543.667 238.09C553.451 231.662 564.566 217.256 568.003 206.004C569.973 199.554 564.893 204.728 562.294 210.428C558.727 218.253 555.708 222.15 549.638 228.448C545.195 233.058 532.497 245.428 543.667 238.09Z" fill="white"/>
<path d="M575.377 188.18C578.517 182.06 580.977 175.56 583.397 169.13C586.047 162.09 588.237 154.42 587.227 146.83C585.547 134.16 573.447 122.45 560.327 123.9C553.607 124.64 546.207 127.12 540.797 131.27C535.287 135.5 532.057 141.89 529.467 148.18C523.377 162.94 522.037 179.33 525.577 194.88C525.847 196.06 527.617 195.56 527.387 194.38C524.747 181.05 525.317 167.34 529.607 154.4C531.687 148.12 534.537 141.25 539.007 136.24C543.657 131.04 550.587 128.42 557.267 127.02C565.677 125.27 571.917 127.82 577.847 133.75C583.287 139.2 585.837 145.9 585.377 153.6C584.987 160.06 582.777 166.15 580.617 172.19C578.737 177.46 577.207 182.86 575.037 188.03C574.957 188.23 575.287 188.37 575.377 188.18Z" fill="black"/>
<path d="M329.527 128.35C322.897 134.39 316.207 140.03 312.587 148.46C309.417 155.85 308.117 164.13 308.007 172.13C307.777 188.18 313.167 204.59 325.307 215.53C336.437 225.55 351.507 229.95 366.087 225.91C383.127 221.18 397.027 208.36 411.927 199.41C421.087 193.91 431.697 186.78 442.297 184.69C456.897 181.82 461.227 201.15 464.497 211.71C464.647 212.18 465.287 211.98 465.217 211.51C463.447 199.33 457.477 179.97 441.827 182.99C433.577 184.58 425.627 189.77 418.437 193.87C410.297 198.52 402.517 203.69 394.857 209.07C380.347 219.26 364.087 229.91 345.507 225.36C327.457 220.94 314.637 205.42 310.557 187.75C308.177 177.46 308.547 166.64 310.867 156.38C313.537 144.57 320.567 136.1 329.597 128.42C329.647 128.38 329.577 128.3 329.527 128.35Z" fill="black"/>
<path d="M465.416 218.33C465.396 220.52 466.066 222.69 466.156 224.9C466.256 227.12 466.316 229.35 466.176 231.56C466.146 231.98 466.836 232.08 466.916 231.66C467.666 227.51 468.036 222.01 465.856 218.21C465.736 218 465.426 218.09 465.416 218.33Z" fill="black"/>
<path d="M471.336 220.37C471.906 219.8 471.926 218.76 472.036 217.98C472.126 217.34 471.226 217.05 471.046 217.71C470.006 221.43 469.766 225.43 468.436 229.06C468.286 229.46 468.936 229.73 469.126 229.35C470.926 225.73 471.146 221.84 472.046 217.99C471.706 217.94 471.376 217.9 471.036 217.85C470.956 218.62 470.586 219.58 470.976 220.33C471.036 220.45 471.236 220.47 471.336 220.37Z" fill="black"/>
<path d="M446.697 67.2996C446.147 61.8096 446.727 56.4696 447.957 51.1096C448.467 48.8896 450.197 38.0196 452.357 37.2796C453.507 36.8796 460.087 44.7796 461.327 45.8196C464.227 48.2396 467.457 50.5296 471.247 51.1096C471.647 51.1696 471.927 50.6596 471.537 50.4196C467.667 48.1396 463.867 46.3996 460.377 43.4696C457.507 41.0596 454.887 38.3496 452.307 35.6196C452.127 35.4296 451.827 35.5396 451.757 35.7696C448.267 46.0296 445.087 56.3696 446.607 67.3196C446.607 67.3596 446.697 67.3496 446.697 67.2996Z" fill="black"/>
<path d="M496.897 70.2095C495.857 62.7895 501.597 53.1995 505.107 46.9095C509.867 38.3795 516.347 31.4295 523.757 25.1395C523.387 24.9195 523.017 24.7095 522.647 24.4895C521.567 28.1295 522.987 31.4495 524.047 34.9795C525.577 40.1095 527.107 45.2295 528.647 50.3595C530.937 58.0195 532.467 68.3795 537.717 74.6595C538.057 75.0695 538.707 74.6295 538.577 74.1595C537.517 70.2995 535.477 66.7095 534.157 62.9095C532.887 59.2295 531.767 55.4995 530.597 51.7895C529.367 47.8895 528.147 43.9795 526.917 40.0795C525.527 35.6595 522.317 29.4495 523.937 24.8595C524.117 24.3495 523.417 23.7495 522.957 24.1095C514.647 30.4695 507.287 38.3495 502.477 47.7095C499.177 54.1295 494.477 63.2595 495.727 70.5495C495.857 71.3195 497.007 70.9795 496.897 70.2095Z" fill="black"/>
<path d="M559.407 93.9395C574.727 83.1995 592.237 78.2795 610.837 77.7895C611.197 77.7795 611.197 77.2395 610.837 77.2295C592.357 76.3995 574.027 82.6495 559.027 93.2995C558.637 93.5695 559.017 94.2195 559.407 93.9395Z" fill="black"/>
<path d="M560.986 96.2196C574.896 90.7796 591.096 93.7996 605.576 94.6596C605.886 94.6796 605.866 94.2196 605.576 94.1896C591.166 92.6496 574.716 90.1296 560.866 95.7696C560.586 95.8796 560.706 96.3296 560.986 96.2196Z" fill="black"/>
<path d="M562.717 99.2596C576.917 95.7796 590.297 102.34 602.877 108.14C603.097 108.24 603.277 107.94 603.067 107.82C591.077 101.17 576.447 95.4696 562.647 98.9896C562.467 99.0296 562.547 99.2996 562.717 99.2596Z" fill="black"/>
<path d="M436.087 81.3795C427.557 78.8195 418.387 77.0095 409.457 77.7395C409.097 77.7695 409.097 78.2795 409.457 78.2995C418.487 78.8795 427.147 79.5895 435.887 82.0995C436.357 82.2395 436.547 81.5195 436.087 81.3795Z" fill="black"/>
<path d="M432.817 93.3195C426.737 93.5295 420.677 93.8595 414.657 94.7095C414.397 94.7495 414.457 95.1795 414.717 95.1695C420.767 95.0295 426.777 94.1895 432.817 93.7895C433.117 93.7695 433.127 93.3095 432.817 93.3195Z" fill="black"/>
<path d="M431.476 102.01C426.676 103.71 421.526 105.58 417.226 108.34C417.056 108.45 417.166 108.76 417.366 108.68C422.196 106.81 426.686 104.14 431.546 102.28C431.716 102.21 431.646 101.94 431.476 102.01Z" fill="black"/>
<path d="M356.547 136.72C352.797 147.49 346.727 159.6 351.927 171.04C355.727 179.39 366.267 182.25 374.687 182.22C389.557 182.17 403.117 174.565 417.027 170.275C424.477 167.975 431.112 166.208 440.379 164.926C449.722 163.633 456.933 162.093 464.503 163.743C475.673 166.183 474.447 176.65 474.307 185.64C474.177 194.39 473.497 202.65 472.287 211.32C472.207 211.9 472.997 212.16 473.187 211.57C475.207 205.46 475.427 198.76 475.537 192.37C475.647 186.05 476.477 179.21 475.197 172.98C472.687 160.78 461.137 161.32 451.077 162.46C435.887 164.18 420.867 167.49 406.397 172.44C392.967 177.04 378.467 184.24 364.087 179.32C355.117 176.25 351.167 169.24 351.067 159.92C350.977 151.89 354.397 144.32 356.717 136.78C356.757 136.65 356.587 136.61 356.547 136.72Z" fill="black"/>
<path d="M318.337 139.989C325.037 132.679 333.437 122.479 344.257 123.299C349.967 123.729 355.977 124.049 355.827 131.159C355.687 137.879 352.987 144.999 351.427 151.479C351.317 151.939 351.967 152.109 352.127 151.669C354.537 144.759 358.487 136.269 357.457 128.709C356.737 123.449 352.587 122.499 347.897 121.939C342.757 121.319 338.557 121.519 334.077 124.279C327.777 128.169 322.737 134.049 317.977 139.619C317.757 139.879 318.107 140.239 318.337 139.989Z" fill="black"/>
<path d="M309.316 162.81C308.866 169.54 317.206 175.299 322.776 177.209C330.256 179.789 339.096 178.279 344.466 172.229C345.266 171.33 344.266 169.939 343.156 170.539C337.116 173.829 330.576 175.74 323.796 173.5C320.916 172.55 317.996 170.89 315.716 168.89C313.546 166.98 312.326 164.379 310.266 162.409C309.906 162.059 309.346 162.33 309.316 162.81Z" fill="black"/>
<path d="M310.077 186.86C317.537 197.74 333.507 199.7 342.127 188.79C342.707 188.06 341.977 186.8 341.047 187.39C336.947 189.99 332.857 192.74 327.917 193.3C321.107 194.07 315.727 190.7 310.887 186.23C310.477 185.86 309.737 186.36 310.077 186.86Z" fill="black"/>
<path d="M381.837 181.64C386.187 181.65 391.367 185.51 392.887 189.51C394.247 193.1 392.987 196.65 393.117 200.31C393.147 201.08 394.197 201.42 394.597 200.71C399.607 191.97 392.377 179.18 381.837 180.32C381.017 180.42 380.967 181.64 381.837 181.64Z" fill="black"/>
<path d="M392.567 178.62C395.497 180.03 397.887 182.52 398.927 185.64C400.167 189.37 398.937 192.91 399.287 196.66C399.357 197.47 400.297 197.72 400.767 197.06C405.647 190.34 400.757 179.29 393.037 177.51C392.397 177.36 391.917 178.31 392.567 178.62Z" fill="black"/>
<path d="M399.797 176.91C402.707 177.86 405.037 179.54 406.217 182.43C407.337 185.2 406.737 188.3 407.827 191.01C408.067 191.6 409.027 191.95 409.367 191.21C410.807 188.08 409.747 183.67 408.177 180.72C406.527 177.62 403.647 175.82 400.337 174.91C399.057 174.57 398.537 176.5 399.797 176.91Z" fill="black"/>
<path d="M445.876 126.14C456.066 126.21 466.246 124.96 476.486 125.36C487.266 125.78 497.786 127.91 508.426 129.42C509.316 129.55 510.136 128.23 509.116 127.79C499.416 123.61 488.836 122.11 478.356 121.7C467.406 121.27 456.036 121.79 445.866 126.04C445.806 126.06 445.816 126.14 445.876 126.14Z" fill="black"/>
<path d="M449.697 139.38C456.297 140 463.597 138.22 470.237 137.72C477.137 137.2 484.037 136.77 490.937 136.2C491.807 136.13 492.167 134.69 491.157 134.54C483.797 133.47 476.727 133.25 469.297 133.78C462.847 134.24 455.037 134.58 449.157 137.36C448.087 137.87 448.747 139.29 449.697 139.38Z" fill="black"/>
<path d="M479.797 52.0795C479.627 48.1795 480.007 43.6995 478.977 39.9295C478.857 39.4895 478.287 39.6295 478.237 40.0295C477.757 43.8795 478.757 48.2195 479.137 52.0795C479.177 52.4995 479.817 52.5095 479.797 52.0795Z" fill="black"/>
<path d="M486.117 48.3395C486.087 47.0295 486.217 45.7395 486.597 44.4895C486.977 43.2195 487.697 42.1595 488.217 40.9595C488.337 40.6895 488.017 40.3695 487.777 40.6195C485.907 42.4995 485.377 45.8095 485.467 48.3395C485.477 48.7595 486.127 48.7595 486.117 48.3395Z" fill="black"/>
<path d="M492.477 49.0695C493.687 47.1695 495.017 45.3495 496.517 43.6695C497.897 42.1295 499.507 40.8195 500.847 39.2395C501.147 38.8895 500.767 38.3095 500.337 38.5795C496.677 40.8095 493.847 44.9795 491.667 48.5895C491.357 49.1195 492.157 49.5795 492.477 49.0695Z" fill="black"/>
<path d="M420.207 216.89C424.392 224.276 428.317 228.89 433.147 234.36C437.911 240.351 442.887 245.47 448.637 249.93C458.307 257.43 470.597 261.01 482.767 260.95C483.327 260.95 483.497 260.02 482.907 259.94C470.317 258.15 458.998 255.092 449.078 246.592C439.166 238.096 412.286 202.911 420.207 216.89Z" fill="white"/>
<path d="M460.667 260.6C458.457 259.8 454.267 259.36 454.147 262.61C453.997 266.74 458.797 268.41 461.887 269.24C473.977 272.48 488.597 274.46 501.037 272.71C511.147 271.28 522.397 268.43 531.537 263.75C533.377 262.81 536.147 260.94 535.517 258.43C534.667 255.02 530.007 256.35 527.797 257.11C526.757 257.46 527.187 258.92 528.247 258.74C529.777 258.47 534.327 257.56 532.577 260.63C532.147 261.38 530.537 261.94 529.787 262.29C527.027 263.6 524.097 264.62 521.207 265.6C515.007 267.7 508.637 269.55 502.187 270.65C494.557 271.96 486.567 271.22 478.907 270.45C474.237 269.98 469.557 269.35 464.967 268.34C463.307 267.98 461.507 267.66 459.917 267.03C455.627 265.35 454.327 260.39 460.487 261.23C460.897 261.29 461.067 260.75 460.667 260.6Z" fill="black"/>
<path d="M125.078 303.94H123.455L110.571 299.234L65.0653 283.449L42.3818 274.695L40.7912 273.592L37.1258 233.956L9.04808 224.168L8.35651 219.687L6.42011 179.362L4.20709 118.357L2.33985 67.416L1.2334 37.7063V33.7082C2.50135 32.5364 5.17558 30.1099 5.72884 29.7791C6.28209 29.4482 15.2725 25.3674 19.6985 23.3684L43.9729 14.8898L63.4749 19.0257L112.507 29.917L116.105 32.1214L115.273 65.6423L116.105 98.6894V124.037C116.105 124.511 136.849 126.641 147.221 127.647L195.551 135.714L198.947 136.673L201.267 158.39L202.794 175.904L219.81 177.453L231.634 179.304L234.663 180.629L236.891 192.526L238.482 221.24L239.203 243.951L215.828 254.773L207.065 260.849L205.934 274.183L165.211 290.9C158.44 293.531 144.643 298.881 143.62 299.234C142.597 299.587 130.833 302.518 125.078 303.94Z" fill="#f4f4f4"/>
<path d="M198.743 136.578C201.176 159.367 203.04 182.202 204.114 205.084C205.188 227.935 204.161 251.022 205.709 273.81C205.757 274.564 206.831 274.564 206.894 273.81C208.679 251.179 206.768 227.715 205.425 205.084C204.051 182.186 201.902 159.351 199.185 136.578C199.154 136.311 198.711 136.296 198.743 136.578Z" fill="black"/>
<path d="M113.47 166.638C131.668 160.686 149.898 154.906 168.017 148.766C174.415 146.598 180.671 144.855 187.179 143.143C190.892 142.169 197.969 141.086 199.248 136.767C199.422 136.17 198.774 135.778 198.269 136.013C192.882 138.557 187.005 139.547 181.24 140.882C174.589 142.421 168.191 144.918 161.73 147.069C145.333 152.535 128.951 158.016 112.712 163.937C111.037 164.549 111.732 167.203 113.47 166.638Z" fill="black"/>
<path d="M112.064 166.434C108.462 188.876 111.416 212.654 113.881 235.081C115.176 246.875 116.708 258.654 118.178 270.433C119.52 281.081 119.378 293.457 122.933 303.602C123.217 304.419 124.275 304.215 124.386 303.414C125.823 292.436 122.601 279.919 121.211 268.973C119.773 257.696 118.304 246.404 117.04 235.112C114.497 212.277 114.529 189.395 112.633 166.544C112.617 166.198 112.112 166.073 112.064 166.434Z" fill="black"/>
<path d="M123.281 304.293C152.663 299.032 179.313 286.656 206.405 274.705C207.463 274.234 206.705 272.412 205.599 272.82C178.128 282.95 152.015 297.933 123.233 304.152C123.154 304.168 123.186 304.309 123.281 304.293Z" fill="black"/>
<path d="M120.295 164.031C107.246 165.884 96.3146 159.319 84.1508 155.032C67.4533 149.127 49.3815 142.295 31.7836 139.829C30.4566 139.641 29.9985 141.306 31.2307 141.824C40.2192 145.546 50.1397 147.572 59.46 150.368C69.3332 153.336 79.2063 156.288 88.9531 159.696C100.532 163.748 108.573 167.675 120.421 164.471C120.689 164.376 120.563 163.984 120.295 164.031Z" fill="black"/>
<path d="M31.1367 140.819C32.5269 164.219 33.6011 187.651 34.9122 211.052C36.0654 231.61 36.255 252.639 39.1143 273.04C39.3196 274.532 41.7682 274.155 41.7366 272.695C41.1363 251.728 38.7035 230.652 37.3924 209.717C35.9548 186.709 34.1698 163.764 31.8792 140.835C31.8318 140.348 31.1051 140.332 31.1367 140.819Z" fill="black"/>
<path d="M39.303 273.448C51.5931 280.045 65.1628 284.458 78.2427 289.153C93.0762 294.478 108.099 300.885 123.565 304.215C124.038 304.309 124.37 303.649 123.912 303.414C110.769 296.456 95.6985 292.64 81.6865 287.85C67.7377 283.076 53.078 278.977 39.6189 272.946C39.2714 272.789 38.9712 273.26 39.303 273.448Z" fill="black"/>
<path d="M31.4519 141.29C36.9651 141.306 42.4625 138.903 47.6755 137.191C54.0575 135.102 60.3921 132.935 66.8057 130.972C78.1164 127.501 89.4587 124.438 101.259 123.512C103.25 123.355 103.265 120.559 101.259 120.418C100.327 120.355 99.3951 120.324 98.4631 120.229C98.4631 121.25 98.4631 122.287 98.4631 123.308C105.856 122.978 113.913 124.721 121.242 125.648C130.847 126.873 140.404 128.302 149.977 129.794C166.232 132.322 182.424 135.008 198.806 136.673C199.296 136.72 199.422 135.887 198.917 135.809C181.445 132.652 163.989 129.542 146.47 126.684C137.75 125.255 129.03 123.889 120.263 122.695C113.218 121.737 105.572 119.994 98.4631 120.245C96.441 120.308 96.5042 123.119 98.4631 123.323C99.3951 123.417 100.327 123.449 101.259 123.527C101.259 122.491 101.259 121.47 101.259 120.434C90.1854 121.266 79.4276 123.904 68.7172 127.077C62.272 128.977 55.89 131.066 49.5079 133.186C43.4893 135.181 36.3964 136.735 31.215 140.473C30.8832 140.709 30.978 141.274 31.4519 141.29Z" fill="black"/>
<path d="M123.122 178.904C126.582 178.967 130.563 177.412 133.88 176.469C137.513 175.417 141.241 174.161 144.654 172.512C145.475 172.119 144.843 171.051 144.085 171.161C139.946 171.789 135.633 172.716 131.653 173.988C128.651 174.946 125.113 175.716 122.664 177.757C122.19 178.15 122.585 178.888 123.122 178.904Z" fill="black"/>
<path d="M155.254 212.371C139.251 212.528 136.345 233.133 141.163 244.567C147.355 259.251 167.891 263.538 180.197 254.351C191.84 245.65 193.372 226.38 182.393 216.093C173.673 207.927 150.894 206.984 144.117 218.009C143.817 218.496 144.559 219.109 144.938 218.638C150.783 211.146 169.708 210.785 177.559 215.151C189.818 221.951 191.84 241.002 181.887 250.409C171.556 260.162 151.905 258.686 144.67 245.603C138.935 235.238 139.267 214.146 155.238 213.282C155.822 213.219 155.822 212.356 155.254 212.371Z" fill="black"/>
<path d="M151.194 162.351C150.562 168.931 152.237 179.909 160.262 181.102C164.401 181.715 167.765 179.312 169.155 175.511C171.035 170.36 169.298 164.439 167.339 159.586C167.133 159.068 166.312 159.257 166.486 159.822C167.592 163.67 168.192 167.659 167.876 171.664C167.449 177.003 163.295 181.809 157.56 178.684C152.853 176.108 151.652 167.141 151.937 162.351C151.968 161.879 151.242 161.895 151.194 162.351Z" fill="black"/>
<path d="M174.605 161.785C177.765 162.413 181.635 161 184.573 159.869C187.796 158.628 191.034 157.152 193.735 155.001C194.383 154.482 193.688 153.43 192.946 153.65C189.628 154.655 186.437 156.1 183.183 157.309C180.387 158.33 176.833 159.052 174.479 160.859C174.179 161.078 174.131 161.675 174.605 161.785Z" fill="black"/>
<path d="M62.5881 151.326C62.3669 169.057 59.1601 188.829 63.8361 206.184C64.0098 206.827 65.0051 206.702 65.0051 206.026C64.9735 197.027 63.8993 187.997 63.8519 178.951C63.7887 169.748 63.6939 160.529 63.3306 151.326C63.3148 150.854 62.5881 150.854 62.5881 151.326Z" fill="black"/>
<path d="M64.5785 206.702C69.444 207.675 72.793 211.241 77.6901 212.214C78.0692 212.293 78.5431 212.042 78.4957 211.602C77.5795 200.577 77.7533 189.489 77.3584 178.448C77.074 170.674 77.8955 162.036 76.3474 154.419C76.2526 153.933 75.4469 153.933 75.3521 154.419C73.2827 165.005 75.5259 177.6 75.7155 188.358C75.7787 191.515 75.826 194.656 75.9998 197.813C76.1104 199.901 77.8639 207.11 76.8687 208.759C74.7518 212.293 72.9984 209.026 70.1865 207.723C68.3224 206.859 66.8691 206.341 64.7681 205.995C64.31 205.932 64.1046 206.608 64.5785 206.702Z" fill="black"/>
<path d="M63.3939 149.551C87.9426 140.976 112.191 133.437 137.672 128.035C138.319 127.893 138.177 126.794 137.514 126.873C123.976 128.427 110.706 132.291 97.7367 136.311C86.0469 139.939 74.2307 143.756 63.2202 149.143C62.999 149.252 63.157 149.629 63.3939 149.551Z" fill="black"/>
<path d="M85.3832 248.619C84.4511 255.513 87.7527 263.837 95.4459 265.219C102.397 266.475 110.137 259.785 107.673 252.624C107.515 252.152 106.804 252.231 106.804 252.733C106.662 259.628 99.6005 266.585 92.6024 262.282C87.8001 259.33 86.252 253.864 86.8681 248.603C86.9787 247.661 85.5095 247.692 85.3832 248.619Z" fill="black"/>
<path d="M95.9986 264.23C96.2198 268.831 95.7142 273.464 96.4251 278.05C96.5515 278.82 97.8942 278.647 97.8153 277.862C97.3255 273.307 97.0412 268.721 96.3461 264.182C96.3145 263.978 95.9828 264.025 95.9986 264.23Z" fill="black"/>
<path d="M85.7624 248.273C92.7921 250.111 99.6638 252.074 106.804 253.456C107.736 253.629 108.131 252.231 107.199 252.043C100.059 250.566 93.0765 249.011 85.8414 247.991C85.6676 247.959 85.5729 248.226 85.7624 248.273Z" fill="black"/>
<path d="M88.2585 276.134C88.2585 276.213 88.2428 276.291 88.2428 276.37C88.1954 276.888 88.6377 277.375 89.1116 277.5C92.2078 278.364 95.1777 279.558 98.1949 280.641C100.422 281.442 102.729 282.447 104.988 281.427C105.398 281.238 105.383 280.673 105.13 280.39C103.487 278.6 100.707 278.348 98.4477 277.673C95.5568 276.809 92.6975 275.883 89.7593 275.239C89.1116 275.097 88.4955 275.427 88.3059 276.071C88.2585 276.087 88.2585 276.118 88.2585 276.134Z" fill="black"/>
<path d="M206.42 261.623C211.997 259.047 217.036 255.325 222.549 252.561C228.031 249.812 233.876 247.661 239.168 244.567C239.626 244.3 239.31 243.672 238.82 243.766C227.573 245.855 213.987 252.953 205.867 260.932C205.504 261.308 205.978 261.827 206.42 261.623Z" fill="black"/>
<path d="M239.531 244.363C243.069 223.82 239.673 200.498 235.202 180.317C235.076 179.752 234.255 180.003 234.349 180.553C236.198 192.614 236.735 204.692 236.924 216.863C237.003 222.03 237.003 227.181 236.924 232.333C236.861 236.479 236.04 240.923 238.441 244.488C238.694 244.881 239.436 244.897 239.531 244.363Z" fill="black"/>
<path d="M203.893 190.636C208.964 190.981 214.777 188.358 219.564 186.882C224.808 185.264 229.848 183.553 234.808 181.197C235.566 180.836 235.029 179.626 234.239 179.846C228.773 181.432 223.481 183.427 218.095 185.28C213.514 186.851 207.874 187.652 203.783 190.227C203.593 190.353 203.672 190.636 203.893 190.636Z" fill="black"/>
<path d="M234.477 180.631C236.42 179.563 229.453 178.307 229.074 178.213C220.654 176.312 211.587 175.449 202.977 175.464C202.488 175.464 202.345 176.265 202.867 176.328C208.475 177.098 214.067 177.585 219.706 178.181C222.787 178.511 225.867 178.857 228.964 179.171C230.133 179.296 234.382 180.49 234.445 180.474C234.303 180.521 234.366 180.694 234.477 180.631Z" fill="black"/>
<path d="M211.713 188.924C211.602 196.478 211.744 204.032 211.871 211.586C211.918 214.036 210.733 219.266 213.924 220.083C217.005 220.868 221.918 217.633 222.771 214.806C223.955 210.879 222.028 204.707 221.807 200.655C221.538 195.771 221.286 190.918 220.749 186.05C220.67 185.39 219.627 185.39 219.706 186.05C220.401 191.908 220.685 197.766 221.08 203.639C221.254 206.215 222.265 209.733 221.807 212.23C221.064 216.313 215.314 221.166 213.087 215.559C211.807 212.308 212.597 206.686 212.423 203.2C212.187 198.441 211.965 193.682 211.855 188.908C211.855 188.829 211.713 188.829 211.713 188.924Z" fill="black"/>
<path d="M220.574 184.573C215.029 182.893 209.042 182.233 203.308 181.636C202.676 181.574 202.676 182.453 203.166 182.642C208.663 184.777 214.777 183.819 220.495 184.84C220.685 184.903 220.764 184.636 220.574 184.573Z" fill="black"/>
<path d="M211.965 187.903C209.453 186.929 206.357 185.468 203.592 185.547C203.087 185.563 202.881 186.238 203.324 186.505C205.741 187.934 209.153 187.824 211.886 188.185C212.075 188.201 212.139 187.966 211.965 187.903Z" fill="black"/>
<path d="M57.8643 51.4096C57.9432 75.8154 58.1644 100.205 58.5593 124.595C58.5751 125.915 60.6603 125.93 60.6287 124.595C60.1232 100.19 59.4282 75.7997 58.5909 51.4096C58.5909 50.9385 57.8643 50.9385 57.8643 51.4096Z" fill="black"/>
<path d="M58.9229 51.1112C40.693 44.7349 21.0889 36.8666 1.78488 34.6365C0.900242 34.5266 0.868648 35.8144 1.59531 36.0814C10.7418 39.5522 20.7256 41.3269 30.1564 43.9811C39.6662 46.6666 49.2551 49.0067 58.8439 51.3939C59.0334 51.441 59.1124 51.174 58.9229 51.1112Z" fill="black"/>
<path d="M0.568674 33.4115C1.95882 65.6698 2.89084 97.9438 3.80707 130.202C4.26519 146.111 4.7549 162.036 5.22881 177.946C5.48156 186.128 5.75011 194.326 6.05025 202.508C6.3188 209.576 5.65533 217.318 7.72474 224.119C7.93011 224.763 9.00431 224.872 9.14648 224.119C10.4576 217.146 9.0517 209.576 8.67257 202.508C8.23025 194.326 7.81953 186.144 7.4404 177.946C6.69793 162.036 6.16083 146.127 5.59214 130.202C4.43895 97.9281 3.26997 65.6541 1.15317 33.4115C1.13737 33.0346 0.552877 33.0346 0.568674 33.4115Z" fill="black"/>
<path d="M7.94595 224.291C16.9503 228.092 26.4601 232.976 36.1911 234.39C37.1231 234.531 37.4865 233.306 36.586 232.976C27.4711 229.521 17.9929 224.37 8.2145 223.333C7.70899 223.286 7.48784 224.087 7.94595 224.291Z" fill="black"/>
<path d="M59.0808 51.3939C77.9425 46.6353 96.1881 40.3689 113.897 32.3279C115.05 31.8096 114.039 30.1763 112.917 30.6475C112.396 30.8516 111.875 31.0715 111.353 31.2757C111.59 31.8411 111.827 32.3907 112.064 32.9561C115.508 30.6161 114.908 34.5266 114.908 37.0237C114.923 41.0285 114.56 45.049 114.45 49.0539C114.213 56.8279 114.102 64.6019 114.102 72.3602C114.102 88.8506 113.897 105.561 115.287 121.988C115.382 123.103 117.024 123.135 117.056 121.988C117.814 100.661 115.966 79.2077 116.14 57.8487C116.187 52.7288 116.282 47.5933 116.424 42.4734C116.487 40.1176 117.909 32.5635 116.709 30.9144C115.555 29.3125 112.491 30.5375 111.116 31.3542C110.248 31.8882 110.8 33.3487 111.827 33.0346C112.443 32.8619 113.044 32.642 113.644 32.4064C113.47 31.7782 113.296 31.15 113.123 30.5375C95.1455 37.5734 77.1527 44.358 58.6543 49.9647C57.7855 50.2474 58.1646 51.6138 59.0808 51.3939Z" fill="black"/>
<path d="M1.97473 35.2177C0.205457 29.2497 38.9399 18.1776 43.679 15.5392C44.2951 15.1936 43.8527 14.3613 43.2209 14.4555C32.6842 16.2459 21.8474 21.6013 12.0533 25.7946C7.56689 27.7106 -1.39005 29.2026 0.837339 35.5318C1.0743 36.2385 2.18009 35.9558 1.97473 35.2177Z" fill="black"/>
<path d="M115.493 29.8936C91.9233 23.3603 67.7538 19.5596 43.9161 14.1885C43.1736 14.0157 42.8735 15.0994 43.6001 15.3193C67.0588 22.4651 91.2915 25.6846 115.129 31.1657C115.982 31.3699 116.33 30.1292 115.493 29.8936Z" fill="black"/>
<path d="M75.0206 153.571C99.6166 144.242 126.393 140.426 150.357 129.48C150.736 129.307 150.467 128.679 150.072 128.804C125.081 136.861 99.1743 143.033 74.8152 152.865C74.3887 153.037 74.5625 153.744 75.0206 153.571Z" fill="black"/>
<path d="M924.969 201.192L928.647 250.98L939.854 253.158L972.538 265.573L975.469 280.034L1047.73 300.922H1059.74L1065.02 298.731L1122.18 264.259L1124.09 274.63L1141.53 282.225L1167.91 298.585L1197.4 315.596C1209.43 310.598 1237.31 285.02 1237.31 259.418C1237.31 228.365 1223.91 182.897 1259.38 152.829C1288.92 127.8 1283.44 71.2326 1279.07 34.5633C1262.55 27.7815 1226.91 13.2399 1216.55 9.32732C1203.59 4.43661 1199.47 7.95789 1192.6 10.5011C1187.11 12.5356 1168.59 18.9783 1160.02 21.9453L1103.13 44.1775L1104.06 63.8419L1070.6 74.6887L1028.85 91.1261L1004.92 101.89L1002.71 103.143L1003.43 133.179L1007.21 152.829L966.14 169.832C966.208 172.276 966.304 177.285 966.14 177.774C965.977 178.263 938.625 192.504 924.969 199.563V201.192Z" fill="url(#paint0_linear_1504_46039)"/>
<path d="M965.271 170.172C965.125 206.817 966.69 244.107 973.387 280.231C974.723 279.668 976.058 279.105 977.393 278.542C976.934 277.75 976.496 276.937 976.037 276.145C975.557 275.312 974.097 275.416 973.888 276.416C973.721 277.292 973.533 278.188 973.366 279.064C972.699 282.44 978.04 282.607 977.685 279.647C973.346 243.148 968.547 206.921 966.815 170.172C966.794 169.171 965.271 169.171 965.271 170.172Z" fill="black"/>
<path d="M966.335 171.652C993.585 175.675 1018.31 191.392 1045.35 196.207C1047.48 196.582 1049.17 193.58 1046.94 192.455C1034.36 186.201 1019.73 182.908 1006.4 178.551C993.418 174.32 980.524 169.401 966.794 168.379C964.917 168.254 964.458 171.381 966.335 171.652Z" fill="black"/>
<path d="M966.23 170.068C978.248 167.4 989.787 162.022 1001.2 157.499C1014.37 152.267 1027.47 146.93 1040.55 141.511C1052.74 136.466 1064.82 131.255 1076.9 125.982C1082.39 123.585 1087.85 121.187 1093.34 118.749C1098.08 116.643 1104.34 115.038 1107.78 111.078C1108.32 110.452 1107.97 109.431 1107.09 109.41C1097.78 109.264 1086.1 117.435 1077.63 121.104C1064.75 126.69 1051.86 132.172 1038.99 137.738C1014.93 148.118 988.723 156.248 965.729 168.817C964.999 169.192 965.5 170.235 966.23 170.068Z" fill="black"/>
<path d="M1102.77 44.1044C1105.71 120.75 1111.87 197.27 1121.78 273.331C1122.09 275.791 1126.04 275.812 1125.7 273.331C1115.48 197.207 1107.9 120.771 1103.56 44.1044C1103.52 43.6042 1102.75 43.6042 1102.77 44.1044Z" fill="black"/>
<path d="M1103.63 44.8965C1110.87 44.3128 1118.44 40.6442 1125.24 38.1428C1134.8 34.5993 1144.27 30.9098 1153.85 27.4496C1162.86 24.1979 1171.92 21.0295 1181.03 18.0487C1187.19 16.0477 1196.85 15.2556 1201.29 10.378C1201.9 9.71094 1201.65 8.68955 1200.77 8.41858C1194.43 6.50088 1185.77 11.2534 1179.7 13.2545C1170.08 16.4437 1160.52 19.8414 1151.01 23.3432C1141.98 26.6784 1132.92 30.0135 1123.97 33.6196C1117.08 36.3919 1108.84 38.9349 1103.06 43.5833C1102.54 43.9793 1102.98 44.9381 1103.63 44.8965Z" fill="black"/>
<path d="M1103.23 44.9589C1117.21 52.7131 1131.52 59.425 1146.46 65.0947C1160.23 70.3267 1175.55 76.9761 1190.59 74.7249C1205.24 72.5154 1219.86 64.6153 1233.3 58.6329C1249.24 51.5458 1264.95 43.9376 1280.56 36.1209C1283.25 34.766 1280.89 30.7221 1278.18 32.077C1251.87 45.355 1224.62 60.092 1196.43 68.9301C1180.32 73.9745 1164.45 67.7003 1149.28 62.2599C1133.94 56.7569 1118.82 50.3993 1104 43.6249C1103.12 43.1871 1102.33 44.4587 1103.23 44.9589Z" fill="black"/>
<path d="M1186.44 81.6453C1188.4 116.268 1188.57 150.995 1189.15 185.68C1189.44 203.461 1189.78 221.241 1190.36 239.001C1190.65 247.734 1191.01 256.489 1191.51 265.223C1191.88 272.102 1191.36 280.043 1193.7 286.568C1194.07 287.631 1195.93 287.923 1196.16 286.568C1197.25 280.148 1195.76 273.185 1195.31 266.703C1194.7 258.011 1194.22 249.319 1193.78 240.606C1192.84 222.304 1192.2 204.003 1191.57 185.68C1190.38 150.995 1189.51 116.268 1186.83 81.6453C1186.81 81.416 1186.42 81.3952 1186.44 81.6453Z" fill="black"/>
<path d="M1046.6 193.83C1049.65 229.287 1053.09 264.702 1056.58 300.117C1056.81 302.493 1060.58 302.472 1060.29 300.117C1056.08 264.66 1051.82 229.224 1047.19 193.83C1047.15 193.455 1046.56 193.455 1046.6 193.83Z" fill="black"/>
<path d="M1046.25 196.895C1068.89 191.496 1090.98 178.489 1110.62 166.441C1111.64 165.816 1111.28 164.002 1109.97 164.065C1098.87 164.627 1089.17 173.32 1079.78 178.531C1068.64 184.721 1056.85 189.245 1045.2 194.393C1043.74 195.04 1044.81 197.228 1046.25 196.895Z" fill="black"/>
<path d="M1060.31 301.951C1082.24 292.592 1102.71 278.105 1122.82 265.369C1124.51 264.285 1122.95 261.596 1121.24 262.659C1111.2 268.954 1100.95 274.936 1090.92 281.231C1080.47 287.776 1070.58 295.093 1059.43 300.429C1058.39 300.929 1059.29 302.388 1060.31 301.951Z" fill="black"/>
<path d="M974.18 280.46C988.117 285.734 1002.58 289.944 1016.87 294.155C1029.22 297.803 1044.33 303.598 1057.33 302.159C1058.43 302.034 1058.64 300.658 1057.58 300.242C1044.72 295.156 1029.49 293.926 1016.1 289.986C1002.41 285.963 988.743 281.065 974.576 278.959C973.595 278.813 973.22 280.106 974.18 280.46Z" fill="black"/>
<path d="M1122.59 275.728C1138.12 281.315 1151.97 289.903 1165.91 298.553C1171.96 302.305 1177.97 306.141 1184.08 309.788C1187.96 312.102 1192.34 315.687 1197.02 316C1197.68 316.042 1198.48 315.583 1198.79 314.979C1200.13 312.331 1200.06 307.099 1196.64 306.099C1196.25 305.995 1195.93 306.245 1195.81 306.578C1195.43 307.516 1195.6 311.352 1195.43 311.498C1195.1 311.769 1190.07 308.559 1189.17 308.037C1181.49 303.577 1174.02 298.762 1166.47 294.072C1152.8 285.609 1138.7 277.917 1123.38 272.914C1121.55 272.31 1120.82 275.103 1122.59 275.728Z" fill="black"/>
<path d="M1001.62 180.636C1036.59 162.251 1074.33 149.432 1108.93 130.38C1109.82 129.88 1109.03 128.65 1108.13 129.025C1071.99 144.617 1034.88 159.416 1000.93 179.448C1000.18 179.886 1000.84 181.032 1001.62 180.636Z" fill="black"/>
<path d="M1015.1 184.617C1045.6 168.546 1080.32 159.833 1109.8 141.969C1110.34 141.636 1109.99 140.656 1109.34 140.906C1077.44 152.788 1043.22 165.148 1014.3 183.283C1013.45 183.804 1014.2 185.097 1015.1 184.617Z" fill="black"/>
<path d="M1002.16 180.678C1001.78 196.373 1003.12 211.986 1003.04 227.682C1003.04 228.474 1003.87 229.204 1004.66 228.912C1009.42 227.265 1018.81 227.828 1019.87 221.408C1020.02 220.595 1019.08 219.886 1018.39 220.553C1016.91 222.033 1009.32 227.015 1006.58 225.472C1004.27 224.18 1005.06 214.258 1004.87 211.632C1004.16 201.314 1003.14 191.016 1002.74 180.678C1002.72 180.302 1002.16 180.302 1002.16 180.678Z" fill="black"/>
<path d="M1018.79 222.429C1018.91 222.346 1019.04 222.283 1019.16 222.2C1019.83 221.804 1020.33 221.012 1020.29 220.22C1019.92 213.529 1019.16 206.921 1018.64 200.251C1018.37 196.79 1016.72 190.141 1018.1 186.785C1018.52 185.764 1016.83 185.055 1016.31 186.035C1014.6 189.286 1015.26 195.123 1015.08 198.625C1014.66 206.129 1014.2 213.466 1015.78 220.845C1015.95 221.575 1016.64 222.283 1017.39 222.45C1017.87 222.533 1018.33 222.7 1018.79 222.429Z" fill="black"/>
<path d="M1035.46 276.25C1035.4 277.563 1035.29 278.897 1035.31 280.21C1035.31 281.294 1035.29 282.211 1036 283.045C1036.19 283.274 1036.63 283.212 1036.77 282.941C1037.25 281.982 1037.07 281.002 1037.09 279.96C1037.09 278.709 1037.19 277.48 1037.23 276.25C1037.28 275.124 1035.52 275.124 1035.46 276.25Z" fill="black"/>
<path d="M1029.95 269.475C1031.29 271.956 1032.75 275.645 1035.92 276.062C1039.72 276.562 1042.12 273.707 1042.45 270.1C1042.55 269.037 1041.05 268.996 1040.72 269.871C1039.82 272.247 1037.96 275.478 1034.94 274.248C1032.96 273.456 1031.62 270.851 1030.45 269.183C1030.24 268.891 1029.76 269.142 1029.95 269.475Z" fill="black"/>
<path d="M1030.77 270.121C1032.89 270.1 1035 270.205 1037.13 270.371C1038.97 270.517 1040.34 270.768 1042.05 270.017C1042.41 269.85 1042.33 269.35 1042.05 269.183C1040.47 268.183 1038.97 268.266 1037.13 268.245C1035 268.204 1032.89 268.245 1030.77 268.391C1029.66 268.433 1029.64 270.121 1030.77 270.121Z" fill="black"/>
<path d="M1032.23 284.108C1033.75 283.837 1035.27 284.004 1036.71 284.567C1037.71 284.963 1038.55 285.984 1039.68 285.713C1039.93 285.65 1040.09 285.4 1040.11 285.15C1040.2 283.67 1038.09 282.962 1036.92 282.566C1035.23 281.982 1033.48 281.919 1031.73 282.232C1030.47 282.44 1031 284.337 1032.23 284.108Z" fill="black"/>
<path d="M1060.69 201.647C1060.58 201.71 1060.46 201.751 1060.35 201.814C1059.93 202.022 1059.73 202.502 1059.71 202.939C1059.58 206.462 1059.56 211.131 1062.79 213.403C1063.15 213.653 1063.71 213.403 1063.79 212.986C1064.38 210.402 1063.34 207.713 1062.75 205.232C1062.56 204.503 1062.4 200.813 1060.69 201.647Z" fill="black"/>
<path d="M1064.57 200.292C1064.59 203.711 1064.59 208.088 1067.01 210.798C1067.45 211.277 1068.11 210.86 1068.18 210.318C1068.57 206.963 1066.67 203.273 1065.71 200.146C1065.53 199.521 1064.57 199.604 1064.57 200.292Z" fill="black"/>
<path d="M1058.52 205.629C1058.27 203.773 1060.1 202.293 1061.29 201.126C1060.96 201.126 1060.62 201.126 1060.29 201.126C1061.27 202.085 1061.73 204.732 1063.75 203.878C1064.59 203.523 1064.75 202.669 1064.94 201.876C1065.21 200.751 1065.65 199.646 1065.44 198.5C1065.34 197.874 1064.48 197.895 1064.19 198.333C1063.86 198.854 1063.8 199.333 1063.67 199.938C1063.59 200.417 1063.54 201.772 1063.25 202.106C1062.73 202.689 1061.79 200.563 1061.31 200.126C1061.04 199.875 1060.58 199.834 1060.31 200.126C1058.87 201.668 1056.97 203.482 1057.37 205.795C1057.47 206.421 1058.6 206.275 1058.52 205.629Z" fill="black"/>
<path d="M1064.86 198.375C1064.94 199.459 1065.8 200.459 1066.49 201.23C1067.16 201.96 1068.01 202.919 1069.03 203.023C1069.35 203.065 1069.72 202.752 1069.78 202.439C1069.83 202.231 1069.8 202.022 1069.7 201.835C1069.58 201.606 1069.28 201.439 1069.03 201.439C1068.97 201.439 1068.66 201.314 1068.43 201.189C1067.99 200.959 1067.59 200.668 1067.2 200.355C1066.53 199.834 1065.65 199.125 1065.42 198.27C1065.36 197.979 1064.84 198.041 1064.86 198.375Z" fill="black"/>
<path d="M1059.66 216.28C1060.98 217.343 1062.92 216.676 1064.44 216.343C1066.86 215.801 1069.8 214.883 1071.87 213.508C1072.41 213.153 1072.24 212.215 1071.51 212.236C1069.72 212.299 1068.01 212.945 1066.3 213.424C1065.44 213.674 1064.65 213.883 1063.84 214.237C1063 214.592 1061.08 215.863 1060.23 215.509C1059.81 215.321 1059.18 215.905 1059.66 216.28Z" fill="black"/>
<path d="M1281.5 33.5779C1275.41 29.7634 1267.73 28.0958 1261.03 25.5736C1252.56 22.3636 1244.17 18.9868 1235.72 15.7559C1228.54 13.0044 1221.39 10.1904 1214.21 7.48059C1211.5 6.45921 1206.87 3.91618 1203.96 5.52121C1203.26 5.91726 1203.07 6.85526 1203.44 7.52228C1205.01 10.3363 1210.14 11.3577 1212.85 12.3999C1220.03 15.1514 1227.17 18.0071 1234.34 20.8002C1242.77 24.0728 1251.27 27.1578 1259.82 30.0552C1266.46 32.3064 1273.86 35.7457 1280.98 35.579C1282.04 35.5581 1282.4 34.1616 1281.5 33.5779Z" fill="black"/>
<path d="M1002.56 103.324C1019.85 94.965 1037.69 87.7945 1055.76 81.2493C1071.37 75.5796 1088.69 71.8901 1103.52 64.5737C1104.25 64.2194 1103.71 63.198 1103 63.323C1085.2 66.5748 1067.03 75.267 1050.21 81.833C1033.96 88.1905 1017.95 95.0901 1002.37 102.969C1002.12 103.094 1002.33 103.428 1002.56 103.324Z" fill="black"/>
<path d="M1002.6 103.553C1010.84 105.846 1019.19 107.576 1027.43 109.827C1034.81 111.849 1041.93 115.163 1049.57 115.997C1050.42 116.08 1050.52 114.934 1049.96 114.538C1037.4 105.533 1017.79 103.761 1002.77 102.386C1002.08 102.344 1001.97 103.386 1002.6 103.553Z" fill="black"/>
<path d="M1001.76 103.157C1001.12 119.103 1001.01 138.447 1005.23 153.892C1005.52 154.997 1007.06 154.705 1007.15 153.642C1008.4 137.696 1006.56 118.582 1003.12 102.969C1002.93 102.198 1001.78 102.406 1001.76 103.157Z" fill="black"/>
<path d="M924.376 200.709C926.149 217.489 925.461 234.665 927.714 251.32C927.84 252.32 929.258 251.945 929.342 251.09C930.928 234.602 927.714 216.884 925.336 200.563C925.273 200.021 924.313 200.146 924.376 200.709Z" fill="black"/>
<path d="M925.106 200.542C932.68 198.75 940.024 194.643 946.889 191.079C953.837 187.452 961.015 183.533 966.523 177.864C966.961 177.405 966.523 176.446 965.855 176.717C959.053 179.531 952.835 183.763 946.451 187.41C939.273 191.496 931.345 194.518 924.417 198.937C923.583 199.479 924.125 200.772 925.106 200.542Z" fill="black"/>
<path d="M926.024 200.688C939.42 205.087 952.836 212.111 966.523 215.217C967.629 215.467 968.234 214.029 967.295 213.404C955.673 205.733 939.774 202.46 926.4 199.396C925.524 199.208 925.211 200.417 926.024 200.688Z" fill="black"/>
<path d="M928.257 252.049C932.743 252.737 937.062 253.07 941.277 254.78C945.825 256.614 950.061 259.365 954.463 261.512C960.785 264.597 967.233 267.015 974.369 267.015C974.994 267.015 975.37 266.015 974.723 265.744C966.607 262.305 958.198 259.866 950.186 256.072C942.424 252.403 936.999 251.069 928.528 250.131C927.443 250.006 927.172 251.882 928.257 252.049Z" fill="black"/>
<path d="M1046.92 116.456C1056.78 117.227 1069.22 109.827 1078.36 106.367C1087.96 102.719 1097.8 98.5293 1105.78 91.9842C1106.69 91.2338 1105.71 89.7121 1104.63 90.0248C1092.96 93.5475 1081.61 98.5085 1070.33 103.053C1062.65 106.158 1051.48 108.493 1046.25 115.309C1045.83 115.789 1046.39 116.414 1046.92 116.456Z" fill="black"/>
<path d="M1047.75 114.1C1046.85 117.79 1047.25 121.979 1047.14 125.752C1047.04 129.754 1047 133.444 1047.67 137.404C1047.81 138.238 1049.23 138.238 1049.36 137.404C1050.02 133.423 1049.98 129.775 1049.88 125.752C1049.77 121.959 1050.17 117.79 1049.27 114.1C1049.06 113.371 1047.94 113.371 1047.75 114.1Z" fill="black"/>
<path d="M1223.25 61.1552C1224.98 80.3739 1227.86 99.4258 1229.3 118.665C1229.36 119.416 1230.42 119.416 1230.46 118.665C1231.78 99.1756 1227.79 80.1029 1224.6 60.9676C1224.46 60.2172 1223.16 60.384 1223.25 61.1552Z" fill="black"/>
<path d="M1230.21 119.249C1238.68 115.038 1245.88 109.098 1254.06 104.387C1254.56 104.095 1254.94 103.345 1254.71 102.782C1251.37 94.3605 1253.06 82.8544 1252.83 73.9954C1252.64 66.9083 1254.15 53.6095 1249.74 47.6271C1249.43 47.2103 1248.62 47.1477 1248.49 47.7939C1247.49 53.0467 1249.22 59.6753 1249.37 65.0948C1249.58 73.0158 1249.66 80.9575 1250.06 88.8784C1250.2 91.6716 1252.64 100.239 1251.64 102.761C1251.02 104.324 1242.73 108.472 1240.94 109.785C1237.16 112.599 1233.41 115.413 1229.52 118.082C1228.79 118.561 1229.42 119.645 1230.21 119.249Z" fill="black"/>
<path d="M1149.2 29.0963C1175.15 37.4133 1199.29 50.8163 1224.62 60.8008C1225.33 61.0718 1225.62 59.9462 1224.93 59.6752C1199.83 49.2113 1175.51 36.371 1149.3 28.7211C1149.05 28.6377 1148.94 29.0129 1149.2 29.0963Z" fill="black"/>
<path d="M1174.65 19.9248C1196.87 33.0151 1223.77 43.2289 1248.95 48.6068C1249.66 48.7527 1250.22 47.6688 1249.47 47.3561C1225.08 36.9547 1199.38 30.076 1175.13 19.091C1174.59 18.8408 1174.11 19.6121 1174.65 19.9248Z" fill="black"/>
<path d="M1115.54 63.7815C1123.2 67.1583 1131.04 71.619 1139.2 73.5159C1140.18 73.7452 1140.75 72.4528 1139.89 71.9108C1132.8 67.471 1124.09 65.0321 1116.31 62.0097C1115.27 61.5928 1114.54 63.3437 1115.54 63.7815Z" fill="black"/>
<path d="M1113.39 72.3696C1120.99 76.1633 1128.45 80.0403 1136.34 83.167C1136.97 83.4172 1137.36 82.4166 1136.8 82.104C1129.37 78.1018 1121.63 74.8918 1113.89 71.5358C1113.31 71.2857 1112.81 72.0778 1113.39 72.3696Z" fill="black"/>
<path d="M1121.15 127.983C1121.4 144.804 1125.6 161.709 1128.89 178.135C1130.96 188.453 1142.56 190.558 1152.03 189.099C1153.01 188.953 1152.78 187.306 1151.8 187.369C1144.15 187.806 1134.86 187.202 1130.37 179.635C1128.14 175.863 1128.04 167.254 1127.08 163.001C1124.47 151.391 1121.78 139.906 1121.36 127.962C1121.34 127.858 1121.15 127.858 1121.15 127.983Z" fill="black"/>
<path d="M1132.19 238.625C1129.37 229.6 1127.62 220.199 1126.81 210.777C1126.64 208.818 1125.41 201.939 1126.26 200.126C1130 192.121 1136.47 198.541 1139.58 200.584C1149.63 207.171 1161.4 210.235 1173.34 210.735C1173.46 210.735 1173.46 210.548 1173.34 210.548C1161.44 209.672 1150.18 206.129 1140.14 199.646C1137.34 197.833 1131.38 190.85 1127.29 194.018C1124.01 196.582 1125.68 204.086 1125.95 207.254C1126.83 217.989 1129.21 228.328 1132 238.709C1132.02 238.813 1132.23 238.751 1132.19 238.625Z" fill="black"/>
<defs>
<linearGradient id="paint0_linear_1504_46039" x1="1173.7" y1="69.6507" x2="1298.69" y2="108.708" gradientUnits="userSpaceOnUse">
<stop stop-color="#f4f4f4"/>
<stop offset="1" stop-color="#f4f4f4" stop-opacity="0"/>
</linearGradient>
<clipPath id="clip0_1504_46039">
<rect width="1063.4" height="17" fill="white" transform="translate(189.217 152.224) rotate(1.2414)"/>
</clipPath>
</defs>
</svg>
