<svg xmlns="http://www.w3.org/2000/svg" width="30" height="50" stroke="#616467" fill="#616467" stroke-width="0.08" viewBox="0 0 24 24" id="scales"><path d="M4 16c-2.2 0-4-1.8-4-4 0-1.8 2.6-8.1 3.1-9.4.1-.4.5-.6.9-.6s.8.2.9.6C5.4 3.9 8 10.2 8 12c0 2.2-1.8 4-4 4zM4 5.7C3 8.4 2 11.2 2 12c0 1.1.9 2 2 2s2-.9 2-2c0-.8-1-3.6-2-6.3zM20 16c-2.2 0-4-1.8-4-4 0-1.8 2.6-8.1 3.1-9.4.1-.4.5-.6.9-.6s.8.2.9.6c.5 1.3 3.1 7.6 3.1 9.4 0 2.2-1.8 4-4 4zm0-10.3c-1 2.6-2 5.5-2 6.3 0 1.1.9 2 2 2s2-.9 2-2c0-.8-1-3.6-2-6.3z"></path><path d="M20 4H4c-.6 0-1-.4-1-1s.4-1 1-1h16c.6 0 1 .4 1 1s-.4 1-1 1z"></path><path d="M12 22c-.6 0-1-.4-1-1V3c0-.6.4-1 1-1s1 .4 1 1v18c0 .6-.4 1-1 1z"></path><path d="M18 22H6c-.6 0-1-.4-1-1s.4-1 1-1h12c.6 0 1 .4 1 1s-.4 1-1 1zM7 13H1c-.6 0-1-.4-1-1s.4-1 1-1h6c.6 0 1 .4 1 1s-.4 1-1 1zm16 0h-6c-.6 0-1-.4-1-1s.4-1 1-1h6c.6 0 1 .4 1 1s-.4 1-1 1z"></path></svg>